<?xml version="1.0" standalone="no"?>
<!DOCTYPE svg PUBLIC "-//W3C//DTD SVG 20010904//EN"
 "http://www.w3.org/TR/2001/REC-SVG-20010904/DTD/svg10.dtd">
<svg version="1.0" xmlns="http://www.w3.org/2000/svg"
 width="649.000000pt" height="649.000000pt" viewBox="0 0 649.000000 649.000000"
 preserveAspectRatio="xMidYMid meet">
<metadata>
Created by potrace 1.11, written by Peter Selinger 2001-2013
</metadata>
<g transform="translate(0.000000,649.000000) scale(0.100000,-0.100000)"
fill="#000000" stroke="none">
<path d="M3140 6203 c-14 -2 -54 -13 -89 -24 -153 -48 -276 -174 -333 -337
-23 -67 -23 -68 -20 -552 2 -267 4 -563 5 -658 1 -94 0 -172 -3 -172 -3 0 -18
12 -35 26 -44 38 -110 75 -174 97 -74 26 -263 32 -341 11 -190 -50 -342 -202
-380 -379 -7 -34 -10 -335 -8 -930 l3 -880 33 -67 c37 -77 90 -128 172 -167
l55 -26 335 -3 c184 -1 340 -4 345 -6 6 -2 10 -30 9 -62 -1 -33 -5 -300 -9
-594 -4 -294 -9 -609 -10 -700 -2 -91 1 -184 6 -208 29 -136 134 -243 269
-272 37 -8 135 -11 300 -8 238 4 247 4 300 29 67 31 137 99 168 162 31 61 33
76 37 187 4 107 19 949 18 1023 -1 44 1 47 26 47 14 1 163 2 331 3 305 2 305
2 360 28 68 32 112 68 151 126 28 40 38 63 56 128 3 11 6 292 7 625 2 664 0
685 -57 798 -85 171 -247 265 -456 265 -160 0 -275 -44 -376 -147 l-61 -61 1
1120 c1 1059 0 1124 -17 1189 -47 174 -163 303 -325 363 -53 19 -91 26 -168
28 -55 1 -111 0 -125 -2z"/>
</g>
</svg>
